<?xml version="1.0" encoding="UTF-8"?>
<!DOCTYPE svg PUBLIC "-//W3C//DTD SVG 1.1//EN" "http://www.w3.org/Graphics/SVG/1.1/DTD/svg11.dtd">
<!-- Creator: CorelDRAW X7 -->
<svg xmlns="http://www.w3.org/2000/svg" xml:space="preserve" width="215.9mm" height="279.4mm" version="1.1" style="shape-rendering:geometricPrecision; text-rendering:geometricPrecision; image-rendering:optimizeQuality; fill-rule:evenodd; clip-rule:evenodd"
viewBox="0 0 21590 27940"
 xmlns:xlink="http://www.w3.org/1999/xlink">
 <defs>
  <style type="text/css">
   <![CDATA[
    .fil3 {fill:#03357C}
    .fil6 {fill:#084689}
    .fil2 {fill:#1164A4}
    .fil1 {fill:#191919}
    .fil4 {fill:#1C8BC4}
    .fil5 {fill:#2779AA}
    .fil0 {fill:#2B9DD4}
   ]]>
  </style>
 </defs>
 <g id="Camada_x0020_1">
  <metadata id="CorelCorpID_0Corel-Layer"/>
  <g id="_1900546821280">
   <path class="fil0" d="M2530 2143c313,218 583,186 853,483 208,230 350,580 319,1018 5,6 10,8 11,20l28 88c1,9 -1,38 -1,47 -6,63 -7,41 -16,63 8,4 41,11 45,14l42 51c2,3 6,12 10,18 36,-69 14,-41 74,-93 -3,57 -5,50 -13,67 -3,4 -8,12 -11,17l-29 28c30,20 17,29 41,68 245,-439 79,-1076 -160,-1428 -216,-318 -626,-633 -1194,-652 -27,24 1,18 -46,36l-109 4c78,37 158,49 156,151z"/>
   <path class="fil1" d="M2281 5308c153,-72 1000,-733 123,-1305 -226,-147 -467,-264 -716,-394 -279,-147 -548,-270 -487,-594 -589,425 453,866 751,1043 722,429 719,712 329,1250z"/>
   <path class="fil1" d="M2395 5049c342,-632 -575,-977 -997,-1230 -95,-56 -145,-97 -226,-172 -115,-108 -96,-117 -181,-241 -165,613 663,785 1098,1149 179,149 227,210 306,494z"/>
   <path class="fil2" d="M1577 3422c30,-85 -221,-2041 -183,-2132l-96 -62c-6,412 -7,820 -8,1227 -1,340 -61,730 85,858 66,57 120,97 202,109z"/>
   <path class="fil3" d="M1320 4929c96,94 732,60 896,51 5,-115 -93,-197 -141,-274l-479 -9 -48 -179c-106,-25 -202,-40 -240,60 -37,97 -17,278 12,351z"/>
   <path class="fil4" d="M2099 3724c45,-21 49,32 48,-182l-8 -1642 -225 -130c-26,102 -27,185 17,378l119 1101c4,98 -5,199 0,254 14,147 47,91 49,221z"/>
   <path class="fil4" d="M2630 3916l-6 -1587 -251 -148c-39,155 75,686 96,911l69 732c15,94 20,135 92,92z"/>
   <path class="fil4" d="M3370 4332c3,171 -25,13 -24,124 0,17 8,66 8,66 0,53 12,13 -13,79 67,-27 50,-25 108,-64l22 59c140,-77 338,-347 412,-564 -24,-39 -11,-48 -41,-68l29 -28c3,-5 8,-13 11,-17 8,-17 10,-10 13,-67 -60,52 -38,24 -74,93 -4,-6 -8,-15 -10,-18l-42 -51c-4,-3 -37,-10 -45,-14 9,-22 10,0 16,-63 0,-9 2,-38 1,-47l-28 -88c-1,-12 -6,-14 -11,-20 -42,165 -48,227 -121,371 -66,130 -173,232 -211,317z"/>
   <path class="fil2" d="M2271 3811l41 -1230c8,230 149,1226 115,1311l196 148 7 -124c-72,43 -77,2 -92,-92l-69 -732c-21,-225 -135,-756 -96,-911 -75,-47 -28,-29 -109,-47l7 1677z"/>
   <path class="fil2" d="M1918 3609c72,83 107,55 181,115 -2,-130 -35,-74 -49,-221 -5,-55 4,-156 0,-254l-119 -1101c-44,-193 -43,-276 -17,-378 -15,-23 -13,-32 -57,-52 -112,-50 -44,-20 -75,-3 60,65 27,-29 31,130l101 1362c8,72 10,162 24,243l15 84c-2,23 14,28 -35,75z"/>
   <path class="fil5" d="M1577 3422l67 62 12 -893c-5,-6 -9,-15 -11,-19l-55 -112c-35,-97 -114,-928 -99,-1117 5,-46 -71,-46 -97,-53 -38,91 213,2047 183,2132z"/>
   <path class="fil6" d="M1918 3609c49,-47 33,-52 35,-75l-15 -84c-14,-81 -16,-171 -24,-243l-101 -1362c-4,-159 29,-65 -31,-130l-4 1854 140 40z"/>
   <path class="fil2" d="M3471 4596l-22 -59c-58,39 -41,37 -108,64 25,-66 13,-26 13,-79 0,0 -8,-49 -8,-66 -1,-111 27,47 24,-124 -113,63 -175,146 -349,234 -130,66 -80,32 -213,375 260,-40 519,-200 663,-345z"/>
   <path class="fil0" d="M1656 2591l-3 -1171 -162 -77c-15,189 64,1020 99,1117l55 112c2,4 6,13 11,19z"/>
   <path class="fil6" d="M2271 3811l156 81c34,-85 -107,-1081 -115,-1311l-41 1230z"/>
   <path class="fil5" d="M2530 2143c2,-102 -78,-114 -156,-151l109 -4c47,-18 19,-12 46,-36l-275 0c53,102 184,140 276,191z"/>
  </g>
 </g>
</svg>
